<svg xmlns="http://www.w3.org/2000/svg" viewBox="0 0 563.22 608.75"><defs><style>.cls-1{fill:none;}.cls-1,.cls-2{stroke:#000;stroke-linecap:round;stroke-linejoin:round;stroke-width:2px;}.cls-2{fill:#fff;}</style></defs><title>Recurso 1Agenda</title><g id="Capa_2" data-name="Capa 2"><g id="Capa_1-2" data-name="Capa 1"><rect class="cls-1" x="1" y="40.04" width="561.22" height="567.71"/><path d="M199.58,221.93a53.43,53.43,0,1,1-53.45,53.43,53.4,53.4,0,0,1,53.45-53.43"/><path d="M341.33,221.93a53.43,53.43,0,1,1-53.45,53.43,53.4,53.4,0,0,1,53.45-53.43"/><path d="M199.58,360.07a53.43,53.43,0,1,1-53.45,53.43,53.39,53.39,0,0,1,53.45-53.43"/><path d="M341.33,360.07a53.43,53.43,0,1,1-53.45,53.43,53.39,53.39,0,0,1,53.45-53.43"/><line class="cls-2" x1="66.2" y1="1" x2="66.2" y2="79.07"/><line class="cls-2" x1="152.07" y1="1" x2="152.07" y2="79.07"/><line class="cls-2" x1="237.92" y1="1" x2="237.92" y2="79.07"/><line class="cls-2" x1="323.77" y1="1" x2="323.77" y2="79.07"/><line class="cls-2" x1="409.65" y1="1" x2="409.65" y2="79.07"/><line class="cls-2" x1="495.52" y1="1" x2="495.52" y2="79.07"/></g></g></svg>