<svg xmlns="http://www.w3.org/2000/svg" xmlns:xlink="http://www.w3.org/1999/xlink" viewBox="0 0 326.87 381.19"><defs><style>.cls-1,.cls-2{fill:none;}.cls-2{stroke:#000;stroke-linecap:round;stroke-linejoin:round;stroke-width:2px;}.cls-3{clip-path:url(#clip-path);}.cls-4{clip-path:url(#clip-path-2);}</style><clipPath id="clip-path"><rect class="cls-1" x="13.32" y="138.4" width="312.56" height="64.87"/></clipPath><clipPath id="clip-path-2"><rect class="cls-1" x="3.5" y="42.52" width="312.56" height="64.87" transform="translate(-11.88 33.94) rotate(-11.69)"/></clipPath></defs><title>Recurso 1cine</title><g id="Capa_2" data-name="Capa 2"><g id="Capa_1-2" data-name="Capa 1"><rect class="cls-2" x="13.32" y="138.4" width="312.56" height="241.79"/><rect class="cls-2" x="4.32" y="44.44" width="312.56" height="64.87" transform="translate(-11.68 31.89) rotate(-10.94)"/><g class="cls-3"><polygon points="73.73 216.9 31.55 216.9 63.74 124.76 105.93 124.76 73.73 216.9"/><polygon points="144.04 216.9 101.86 216.9 134.05 124.76 176.23 124.76 144.04 216.9"/><polygon points="214.35 216.9 172.16 216.9 204.36 124.76 246.54 124.76 214.35 216.9"/><polygon points="284.65 216.9 242.47 216.9 274.66 124.76 316.85 124.76 284.65 216.9"/></g><g class="cls-4"><polygon points="75.24 139.5 33.94 148.05 46.79 51.3 88.09 42.75 75.24 139.5"/><polygon points="144.09 125.25 102.78 133.8 115.63 37.05 156.94 28.5 144.09 125.25"/><polygon points="212.94 111 171.63 119.55 184.48 22.8 225.79 14.25 212.94 111"/><polygon points="281.79 96.75 240.48 105.3 253.33 8.55 294.64 0 281.79 96.75"/></g></g></g></svg>