<svg xmlns="http://www.w3.org/2000/svg" viewBox="0 0 557.59 565.48"><defs><style>.cls-1{fill:none;stroke:#000;stroke-linecap:round;stroke-linejoin:round;stroke-width:2px;}</style></defs><title>Recurso 2Cultura</title><g id="Capa_2" data-name="Capa 2"><g id="Capa_1-2" data-name="Capa 1"><path class="cls-1" d="M446.5,314.11c0,140.62-170.4,187.48-170.4,187.48S105.71,454.73,105.71,314.11V86.39c11.8,54.37,90.88,75.43,170.39,72.77,75.34-2.51,158.17-27.16,170.4-72.77Z"/><path class="cls-1" d="M167.27,343.89c43.66,66.55,145.39,65,199.17,11.22-6.12,43.55-39.41,76.06-103.76,76.06C219.79,431.17,167.27,405.94,167.27,343.89Z"/><path class="cls-1" d="M145,268.93c7.06-15.37,23.57-26.18,42.83-26.18,25.66,0,46.47,19.2,46.47,42.86a39.81,39.81,0,0,1-.95,8.65"/><path class="cls-1" d="M310.5,296c-2.21-16.78,6.05-34.71,22.36-44.93,21.74-13.64,49.56-8.46,62.14,11.6a38.86,38.86,0,0,1,3.79,7.82"/><path class="cls-1" d="M404,536.12c-1.75,17.69-20.69,30.27-42.28,28.12S324.07,546,325.84,528.32,346.52,498,368.11,500.2,405.77,518.44,404,536.12Z"/><line class="cls-1" x1="401.96" y1="544.5" x2="487.23" y2="400.5"/><polygon class="cls-1" points="540.05 433.38 478.38 415.45 494.92 387.52 556.59 405.46 540.05 433.38"/><path class="cls-1" d="M65.7,199.68c13,11.85,11.9,34.36-2.55,50.28s-36.76,19.23-49.81,7.38S1.44,223,15.9,207.06,52.65,187.83,65.7,199.68Z"/><line class="cls-1" x1="71.16" y1="206.25" x2="6.79" y2="53.33"/><polygon class="cls-1" points="64.17 30.66 13.48 69.2 1 39.55 51.69 1 64.17 30.66"/></g></g></svg>