<?xml version="1.0" encoding="utf-8"?>
<!-- Generator: Adobe Illustrator 23.0.1, SVG Export Plug-In . SVG Version: 6.00 Build 0)  -->
<svg version="1.1" id="Layer_1" xmlns="http://www.w3.org/2000/svg" xmlns:xlink="http://www.w3.org/1999/xlink" x="0px" y="0px"
	 viewBox="0 0 596.6 239" style="enable-background:new 0 0 596.6 239;" xml:space="preserve">
<style type="text/css">
	.st0{fill:#FFFFFF;}
</style>
<title>Donaciones</title>
<g>
	<path class="st0" d="M88.2,54.4c0,6.9-1.2,13.2-3.5,19c-2.3,5.8-5.5,10.7-9.7,14.9c-4.2,4.2-9.2,7.4-15,9.7
		c-5.9,2.3-12.4,3.5-19.5,3.5H4.6V7.4h35.9c7.1,0,13.6,1.2,19.5,3.5c5.9,2.3,10.9,5.6,15,9.7c4.2,4.1,7.4,9.1,9.7,14.9
		C87.1,41.2,88.2,47.5,88.2,54.4z M70.3,54.4c0-5.2-0.7-9.8-2.1-13.9c-1.4-4.1-3.4-7.6-5.9-10.4c-2.6-2.8-5.7-5-9.3-6.5
		c-3.7-1.5-7.8-2.3-12.4-2.3H22.2v66.3h18.3c4.6,0,8.7-0.8,12.4-2.3c3.7-1.5,6.8-3.7,9.3-6.5c2.6-2.8,4.5-6.3,5.9-10.4
		C69.6,64.2,70.3,59.6,70.3,54.4z"/>
	<path class="st0" d="M129.6,33.7c5,0,9.5,0.8,13.6,2.4c4.1,1.6,7.5,3.9,10.4,6.8c2.9,3,5.1,6.6,6.6,10.8c1.6,4.3,2.3,9,2.3,14.3
		c0,5.3-0.8,10.1-2.3,14.3c-1.6,4.3-3.8,7.9-6.6,10.9c-2.9,3-6.3,5.3-10.4,6.9c-4.1,1.6-8.6,2.4-13.6,2.4c-5,0-9.5-0.8-13.6-2.4
		c-4.1-1.6-7.6-3.9-10.5-6.9c-2.9-3-5.1-6.6-6.7-10.9c-1.6-4.3-2.4-9-2.4-14.3c0-5.3,0.8-10,2.4-14.3c1.6-4.3,3.8-7.9,6.7-10.8
		c2.9-3,6.4-5.2,10.5-6.8C120,34.5,124.6,33.7,129.6,33.7z M129.6,90.1c5.6,0,9.7-1.9,12.3-5.6c2.7-3.7,4-9.2,4-16.4
		c0-7.2-1.3-12.7-4-16.5c-2.7-3.8-6.8-5.7-12.3-5.7c-5.6,0-9.8,1.9-12.5,5.7c-2.7,3.8-4,9.3-4,16.4c0,7.2,1.3,12.6,4,16.4
		C119.8,88.3,123.9,90.1,129.6,90.1z"/>
	<path class="st0" d="M175.1,101.5V34.7h9.8c2.1,0,3.5,1,4.1,2.9l1.1,5.3c1.3-1.4,2.8-2.6,4.3-3.8c1.5-1.1,3.1-2.1,4.8-2.9
		c1.7-0.8,3.5-1.5,5.4-1.9c1.9-0.4,4-0.7,6.3-0.7c3.6,0,6.9,0.6,9.7,1.9c2.8,1.2,5.2,3,7.1,5.2c1.9,2.2,3.3,4.9,4.3,8
		c1,3.1,1.5,6.5,1.5,10.3v42.5h-16.1V59c0-4.1-0.9-7.2-2.8-9.5c-1.9-2.2-4.7-3.4-8.5-3.4c-2.8,0-5.4,0.6-7.8,1.9
		c-2.4,1.3-4.7,3-6.9,5.1v48.3H175.1z"/>
	<path class="st0" d="M301.5,101.5h-7.2c-1.5,0-2.7-0.2-3.6-0.7c-0.9-0.5-1.5-1.4-2-2.8l-1.4-4.8c-1.7,1.5-3.4,2.9-5,4
		c-1.6,1.2-3.3,2.1-5,2.9c-1.7,0.8-3.6,1.4-5.5,1.8s-4.1,0.6-6.5,0.6c-2.8,0-5.4-0.4-7.8-1.1c-2.4-0.8-4.4-1.9-6.2-3.4
		c-1.7-1.5-3.1-3.4-4-5.7c-1-2.3-1.4-4.9-1.4-7.9c0-2.5,0.7-5,2-7.5c1.3-2.5,3.5-4.7,6.6-6.7c3.1-2,7.2-3.6,12.3-4.9
		c5.1-1.3,11.5-2,19.1-2v-3.9c0-4.5-0.9-7.8-2.8-10c-1.9-2.2-4.6-3.2-8.2-3.2c-2.6,0-4.8,0.3-6.5,0.9c-1.7,0.6-3.2,1.3-4.5,2.1
		c-1.3,0.8-2.5,1.4-3.5,2.1c-1.1,0.6-2.3,0.9-3.6,0.9c-1.1,0-2-0.3-2.8-0.8c-0.8-0.6-1.4-1.3-1.9-2.1l-2.9-5.1
		c7.7-7,17-10.5,27.8-10.5c3.9,0,7.4,0.6,10.5,1.9c3.1,1.3,5.7,3.1,7.8,5.3c2.1,2.3,3.7,5,4.9,8.2c1.1,3.2,1.7,6.6,1.7,10.4V101.5z
		 M270.2,91.5c1.6,0,3.2-0.1,4.6-0.4c1.4-0.3,2.7-0.7,3.9-1.3c1.2-0.6,2.4-1.3,3.6-2.2c1.1-0.9,2.3-1.9,3.5-3.1V73.2
		c-4.7,0-8.6,0.3-11.8,0.9c-3.1,0.6-5.7,1.3-7.6,2.3c-1.9,0.9-3.3,2-4.1,3.2c-0.8,1.2-1.2,2.6-1.2,4c0,2.8,0.8,4.9,2.5,6.1
		C265.4,90.9,267.5,91.5,270.2,91.5z"/>
	<path class="st0" d="M339.3,102.6c-5.8,0-10.2-1.6-13.3-4.9c-3.1-3.3-4.7-7.8-4.7-13.6V46.8h-6.8c-0.9,0-1.6-0.3-2.2-0.8
		c-0.6-0.6-0.9-1.4-0.9-2.5V37l10.7-1.8l3.4-18.2c0.2-0.9,0.6-1.5,1.2-2c0.6-0.5,1.4-0.7,2.4-0.7h8.3v21h17.6v11.5h-17.6V83
		c0,2.1,0.5,3.7,1.6,4.9c1,1.2,2.4,1.8,4.2,1.8c1,0,1.8-0.1,2.5-0.4c0.7-0.2,1.3-0.5,1.8-0.7c0.5-0.3,0.9-0.5,1.3-0.7
		c0.4-0.2,0.8-0.4,1.2-0.4c0.5,0,0.9,0.1,1.2,0.4c0.3,0.2,0.6,0.6,1,1.1l4.8,7.8c-2.3,2-5,3.4-8.1,4.4
		C345.7,102.1,342.5,102.6,339.3,102.6z"/>
	<path class="st0" d="M387.2,15.2c0,1.4-0.3,2.7-0.8,3.9c-0.6,1.2-1.3,2.3-2.2,3.2c-0.9,0.9-2,1.6-3.3,2.2c-1.3,0.5-2.6,0.8-4,0.8
		c-1.4,0-2.7-0.3-3.9-0.8c-1.2-0.5-2.3-1.3-3.2-2.2c-0.9-0.9-1.6-2-2.2-3.2c-0.5-1.2-0.8-2.5-0.8-3.9c0-1.4,0.3-2.8,0.8-4
		c0.5-1.3,1.3-2.3,2.2-3.3s2-1.6,3.2-2.2c1.2-0.5,2.5-0.8,3.9-0.8c1.4,0,2.8,0.3,4,0.8c1.3,0.5,2.4,1.3,3.3,2.2
		c0.9,0.9,1.7,2,2.2,3.3C387,12.5,387.2,13.8,387.2,15.2z M384.8,34.7v66.8h-16.1V34.7H384.8z"/>
	<path class="st0" d="M431.5,33.7c5,0,9.5,0.8,13.6,2.4c4.1,1.6,7.5,3.9,10.4,6.8c2.9,3,5.1,6.6,6.6,10.8c1.6,4.3,2.3,9,2.3,14.3
		c0,5.3-0.8,10.1-2.3,14.3c-1.6,4.3-3.8,7.9-6.6,10.9s-6.3,5.3-10.4,6.9c-4.1,1.6-8.6,2.4-13.6,2.4c-5,0-9.5-0.8-13.6-2.4
		c-4.1-1.6-7.6-3.9-10.5-6.9c-2.9-3-5.1-6.6-6.7-10.9c-1.6-4.3-2.4-9-2.4-14.3c0-5.3,0.8-10,2.4-14.3c1.6-4.3,3.8-7.9,6.7-10.8
		c2.9-3,6.4-5.2,10.5-6.8C422,34.5,426.5,33.7,431.5,33.7z M431.5,90.1c5.6,0,9.7-1.9,12.3-5.6c2.7-3.7,4-9.2,4-16.4
		c0-7.2-1.3-12.7-4-16.5c-2.7-3.8-6.8-5.7-12.3-5.7c-5.6,0-9.8,1.9-12.5,5.7c-2.7,3.8-4,9.3-4,16.4c0,7.2,1.3,12.6,4,16.4
		C421.7,88.3,425.9,90.1,431.5,90.1z"/>
	<path class="st0" d="M477,101.5V34.7h9.8c2.1,0,3.5,1,4.1,2.9l1.1,5.3c1.3-1.4,2.8-2.6,4.3-3.8c1.5-1.1,3.1-2.1,4.8-2.9
		c1.7-0.8,3.5-1.5,5.4-1.9c1.9-0.4,4-0.7,6.3-0.7c3.6,0,6.9,0.6,9.7,1.9c2.8,1.2,5.2,3,7.1,5.2c1.9,2.2,3.3,4.9,4.3,8
		c1,3.1,1.5,6.5,1.5,10.3v42.5h-16.1V59c0-4.1-0.9-7.2-2.8-9.5c-1.9-2.2-4.7-3.4-8.5-3.4c-2.8,0-5.4,0.6-7.8,1.9
		c-2.4,1.3-4.7,3-6.9,5.1v48.3H477z"/>
	<path class="st0" d="M590.7,47.7c-0.4,0.7-0.9,1.2-1.4,1.5c-0.5,0.3-1.1,0.4-1.8,0.4c-0.8,0-1.6-0.2-2.5-0.7
		c-0.9-0.4-1.9-0.9-3.1-1.5c-1.2-0.5-2.5-1-4-1.5c-1.5-0.4-3.3-0.7-5.3-0.7c-3.2,0-5.7,0.7-7.5,2c-1.8,1.3-2.7,3.1-2.7,5.3
		c0,1.4,0.5,2.6,1.4,3.6c0.9,1,2.2,1.8,3.7,2.6c1.5,0.7,3.3,1.4,5.2,2c2,0.6,3.9,1.2,6,1.9c2,0.7,4,1.5,6,2.4c2,0.9,3.7,2,5.2,3.4
		c1.5,1.4,2.8,3,3.7,4.9c0.9,1.9,1.4,4.2,1.4,6.9c0,3.2-0.6,6.2-1.8,8.9c-1.2,2.7-2.9,5.1-5.1,7c-2.3,2-5,3.5-8.4,4.6
		c-3.3,1.1-7.1,1.7-11.4,1.7c-2.3,0-4.5-0.2-6.7-0.6c-2.2-0.4-4.3-1-6.3-1.7c-2-0.7-3.9-1.6-5.6-2.6c-1.7-1-3.2-2.1-4.5-3.3l3.7-6.1
		c0.5-0.7,1-1.3,1.7-1.7c0.7-0.4,1.5-0.6,2.5-0.6c1,0,1.9,0.3,2.8,0.8c0.9,0.6,1.9,1.2,3.1,1.8c1.2,0.7,2.5,1.3,4.1,1.8
		c1.6,0.6,3.6,0.8,6,0.8c1.9,0,3.5-0.2,4.9-0.7c1.4-0.5,2.5-1.1,3.4-1.8c0.9-0.7,1.5-1.6,2-2.6c0.4-1,0.6-2,0.6-3
		c0-1.6-0.5-2.8-1.4-3.8c-0.9-1-2.2-1.9-3.7-2.6c-1.5-0.7-3.3-1.4-5.3-2c-2-0.6-4-1.2-6.1-1.9c-2.1-0.7-4.1-1.5-6.1-2.4
		c-2-0.9-3.7-2.1-5.3-3.5c-1.5-1.4-2.8-3.2-3.7-5.3c-0.9-2.1-1.4-4.6-1.4-7.6c0-2.7,0.5-5.3,1.6-7.8c1.1-2.5,2.7-4.6,4.8-6.5
		c2.1-1.8,4.7-3.3,7.9-4.4c3.1-1.1,6.8-1.7,10.9-1.7c4.6,0,8.8,0.8,12.6,2.3c3.8,1.5,6.9,3.5,9.4,6L590.7,47.7z"/>
	<path class="st0" d="M11.7,152.9v13.5H4.6v-38.3h12.5c2.6,0,4.8,0.3,6.6,0.9c1.9,0.6,3.4,1.4,4.6,2.5c1.2,1.1,2.1,2.4,2.7,3.9
		c0.6,1.5,0.9,3.1,0.9,4.9c0,1.9-0.3,3.6-0.9,5.1c-0.6,1.5-1.5,2.9-2.8,4c-1.2,1.1-2.8,2-4.6,2.6c-1.9,0.6-4,0.9-6.5,0.9H11.7z
		 M11.7,147.4h5.3c1.3,0,2.4-0.2,3.4-0.5c1-0.3,1.8-0.8,2.4-1.4c0.6-0.6,1.1-1.3,1.4-2.2c0.3-0.9,0.5-1.8,0.5-2.9
		c0-1-0.2-1.9-0.5-2.8c-0.3-0.8-0.8-1.5-1.4-2.1c-0.6-0.6-1.4-1-2.4-1.3c-1-0.3-2.1-0.5-3.4-0.5h-5.3V147.4z"/>
	<path class="st0" d="M37.1,166.4v-39.3h6.5v15.1c1.1-1,2.2-1.8,3.5-2.4c1.3-0.6,2.8-0.9,4.5-0.9c1.5,0,2.8,0.3,3.9,0.8
		c1.1,0.5,2.1,1.2,2.9,2.1c0.8,0.9,1.3,2,1.7,3.3c0.4,1.3,0.6,2.7,0.6,4.2v17.3h-6.5v-17.3c0-1.7-0.4-2.9-1.2-3.9
		c-0.8-0.9-1.9-1.4-3.5-1.4c-1.1,0-2.2,0.3-3.2,0.8c-1,0.5-1.9,1.2-2.8,2.1v19.6H37.1z"/>
	<path class="st0" d="M75.1,131.3c0,0.6-0.1,1.1-0.3,1.6c-0.2,0.5-0.5,0.9-0.9,1.3c-0.4,0.4-0.8,0.7-1.3,0.9
		c-0.5,0.2-1.1,0.3-1.6,0.3c-0.6,0-1.1-0.1-1.6-0.3c-0.5-0.2-0.9-0.5-1.3-0.9c-0.4-0.4-0.7-0.8-0.9-1.3c-0.2-0.5-0.3-1-0.3-1.6
		c0-0.6,0.1-1.1,0.3-1.6c0.2-0.5,0.5-1,0.9-1.3c0.4-0.4,0.8-0.7,1.3-0.9c0.5-0.2,1-0.3,1.6-0.3c0.6,0,1.1,0.1,1.6,0.3
		c0.5,0.2,1,0.5,1.3,0.9c0.4,0.4,0.7,0.8,0.9,1.3C75,130.2,75.1,130.8,75.1,131.3z M74.1,139.2v27.2h-6.5v-27.2H74.1z"/>
	<path class="st0" d="M88.5,127.1v39.3h-6.5v-39.3H88.5z"/>
	<path class="st0" d="M117.1,166.4h-2.9c-0.6,0-1.1-0.1-1.5-0.3c-0.4-0.2-0.6-0.6-0.8-1.1l-0.6-1.9c-0.7,0.6-1.4,1.2-2,1.6
		c-0.7,0.5-1.3,0.9-2.1,1.2c-0.7,0.3-1.5,0.6-2.2,0.7c-0.8,0.2-1.7,0.2-2.6,0.2c-1.1,0-2.2-0.2-3.2-0.5c-1-0.3-1.8-0.8-2.5-1.4
		c-0.7-0.6-1.2-1.4-1.6-2.3c-0.4-0.9-0.6-2-0.6-3.2c0-1,0.3-2,0.8-3c0.5-1,1.4-1.9,2.7-2.7c1.3-0.8,2.9-1.5,5-2
		c2.1-0.5,4.7-0.8,7.8-0.8v-1.6c0-1.8-0.4-3.2-1.2-4.1c-0.8-0.9-1.9-1.3-3.3-1.3c-1.1,0-1.9,0.1-2.6,0.4c-0.7,0.2-1.3,0.5-1.8,0.8
		c-0.5,0.3-1,0.6-1.4,0.8c-0.4,0.2-0.9,0.4-1.5,0.4c-0.4,0-0.8-0.1-1.1-0.3c-0.3-0.2-0.6-0.5-0.8-0.8l-1.2-2.1
		c3.1-2.9,6.9-4.3,11.3-4.3c1.6,0,3,0.3,4.2,0.8c1.2,0.5,2.3,1.2,3.2,2.2c0.9,0.9,1.5,2,2,3.3c0.4,1.3,0.7,2.7,0.7,4.2V166.4z
		 M104.4,162.3c0.7,0,1.3-0.1,1.9-0.2c0.6-0.1,1.1-0.3,1.6-0.5c0.5-0.2,1-0.5,1.5-0.9c0.5-0.4,0.9-0.8,1.4-1.3v-4.5
		c-1.9,0-3.5,0.1-4.8,0.4c-1.3,0.2-2.3,0.5-3.1,0.9c-0.8,0.4-1.3,0.8-1.7,1.3c-0.3,0.5-0.5,1-0.5,1.6c0,1.2,0.3,2,1,2.5
		C102.4,162.1,103.3,162.3,104.4,162.3z"/>
	<path class="st0" d="M123.6,166.4v-27.2h4c0.8,0,1.4,0.4,1.7,1.2l0.4,2.1c0.5-0.6,1.1-1.1,1.7-1.5c0.6-0.5,1.3-0.9,1.9-1.2
		c0.7-0.3,1.4-0.6,2.2-0.8c0.8-0.2,1.6-0.3,2.5-0.3c1.5,0,2.8,0.3,3.9,0.8c1.1,0.5,2.1,1.2,2.9,2.1c0.8,0.9,1.3,2,1.7,3.3
		c0.4,1.3,0.6,2.7,0.6,4.2v17.3h-6.5v-17.3c0-1.7-0.4-2.9-1.2-3.9c-0.8-0.9-1.9-1.4-3.5-1.4c-1.1,0-2.2,0.3-3.2,0.8
		c-1,0.5-1.9,1.2-2.8,2.1v19.6H123.6z"/>
	<path class="st0" d="M162.6,166.8c-2.3,0-4.2-0.7-5.4-2c-1.3-1.3-1.9-3.2-1.9-5.5v-15.2h-2.8c-0.4,0-0.7-0.1-0.9-0.3
		c-0.3-0.2-0.4-0.6-0.4-1v-2.6l4.4-0.7l1.4-7.4c0.1-0.4,0.2-0.6,0.5-0.8c0.3-0.2,0.6-0.3,1-0.3h3.4v8.5h7.1v4.7h-7.1v14.7
		c0,0.8,0.2,1.5,0.6,2c0.4,0.5,1,0.7,1.7,0.7c0.4,0,0.7,0,1-0.1c0.3-0.1,0.5-0.2,0.7-0.3c0.2-0.1,0.4-0.2,0.5-0.3
		c0.2-0.1,0.3-0.1,0.5-0.1c0.2,0,0.4,0,0.5,0.1c0.1,0.1,0.3,0.2,0.4,0.4l2,3.2c-1,0.8-2,1.4-3.3,1.8
		C165.2,166.6,163.9,166.8,162.6,166.8z"/>
	<path class="st0" d="M174.1,166.4v-39.3h6.5v15.1c1.1-1,2.2-1.8,3.5-2.4c1.3-0.6,2.8-0.9,4.5-0.9c1.5,0,2.8,0.3,3.9,0.8
		c1.1,0.5,2.1,1.2,2.9,2.1c0.8,0.9,1.3,2,1.7,3.3c0.4,1.3,0.6,2.7,0.6,4.2v17.3h-6.5v-17.3c0-1.7-0.4-2.9-1.2-3.9
		c-0.8-0.9-1.9-1.4-3.5-1.4c-1.1,0-2.2,0.3-3.2,0.8c-1,0.5-1.9,1.2-2.8,2.1v19.6H174.1z"/>
	<path class="st0" d="M204.2,166.4v-27.2h3.8c0.7,0,1.1,0.1,1.4,0.4s0.4,0.7,0.5,1.3l0.4,3.3c1-1.7,2.1-3,3.4-4
		c1.3-1,2.8-1.5,4.4-1.5c1.3,0,2.5,0.3,3.3,0.9l-0.8,4.9c-0.1,0.3-0.2,0.5-0.3,0.7c-0.2,0.1-0.4,0.2-0.7,0.2c-0.3,0-0.6-0.1-1.1-0.2
		c-0.5-0.1-1.1-0.2-1.8-0.2c-1.4,0-2.5,0.4-3.5,1.1c-1,0.7-1.8,1.8-2.5,3.3v16.9H204.2z"/>
	<path class="st0" d="M237.4,138.8c2,0,3.9,0.3,5.5,1c1.6,0.7,3.1,1.6,4.2,2.8c1.2,1.2,2.1,2.7,2.7,4.4c0.6,1.7,1,3.7,1,5.8
		c0,2.2-0.3,4.1-1,5.8c-0.6,1.7-1.5,3.2-2.7,4.4c-1.2,1.2-2.6,2.2-4.2,2.8c-1.7,0.7-3.5,1-5.5,1c-2,0-3.9-0.3-5.5-1
		c-1.7-0.7-3.1-1.6-4.2-2.8c-1.2-1.2-2.1-2.7-2.7-4.4c-0.6-1.7-1-3.7-1-5.8c0-2.1,0.3-4.1,1-5.8c0.6-1.7,1.6-3.2,2.7-4.4
		c1.2-1.2,2.6-2.1,4.2-2.8C233.6,139.1,235.4,138.8,237.4,138.8z M237.4,161.8c2.3,0,3.9-0.8,5-2.3c1.1-1.5,1.6-3.7,1.6-6.7
		c0-2.9-0.5-5.2-1.6-6.7c-1.1-1.5-2.8-2.3-5-2.3c-2.3,0-4,0.8-5.1,2.3c-1.1,1.5-1.6,3.8-1.6,6.7c0,2.9,0.5,5.1,1.6,6.7
		C233.4,161,235.1,161.8,237.4,161.8z"/>
	<path class="st0" d="M255.9,175.3v-36h4c0.4,0,0.8,0.1,1.1,0.3c0.3,0.2,0.5,0.5,0.6,0.9l0.5,2.5c1.1-1.3,2.4-2.3,3.8-3
		c1.4-0.8,3.1-1.2,5-1.2c1.5,0,2.8,0.3,4.1,0.9c1.2,0.6,2.3,1.5,3.2,2.7c0.9,1.2,1.6,2.6,2.1,4.3c0.5,1.7,0.7,3.7,0.7,5.9
		c0,2-0.3,3.9-0.8,5.6c-0.5,1.7-1.3,3.2-2.3,4.5c-1,1.3-2.2,2.3-3.7,3c-1.4,0.7-3,1.1-4.8,1.1c-1.5,0-2.8-0.2-3.9-0.7
		c-1.1-0.5-2-1.1-2.9-1.9v11.1H255.9z M268.6,143.9c-1.4,0-2.5,0.3-3.5,0.9c-1,0.6-1.9,1.4-2.7,2.4v12.2c0.7,0.9,1.5,1.6,2.4,1.9
		c0.9,0.4,1.8,0.5,2.8,0.5c1,0,1.9-0.2,2.7-0.6c0.8-0.4,1.5-0.9,2-1.7c0.6-0.8,1-1.7,1.3-2.9c0.3-1.2,0.4-2.5,0.4-4.1
		c0-1.6-0.1-2.9-0.4-4c-0.3-1.1-0.6-2-1.1-2.7c-0.5-0.7-1.1-1.2-1.7-1.5C270.3,144.1,269.5,143.9,268.6,143.9z"/>
	<path class="st0" d="M294.6,173.9c-0.2,0.5-0.4,0.8-0.8,1c-0.3,0.2-0.8,0.4-1.4,0.4h-4.9l5.1-10.9l-11-25.1h5.7
		c0.5,0,0.9,0.1,1.2,0.4c0.3,0.2,0.5,0.5,0.6,0.8l5.8,14.1c0.2,0.5,0.4,0.9,0.5,1.4c0.1,0.5,0.3,1,0.4,1.5c0.1-0.5,0.3-1,0.5-1.5
		c0.2-0.5,0.3-1,0.5-1.5l5.5-14.1c0.1-0.4,0.4-0.6,0.7-0.9c0.3-0.2,0.7-0.3,1.1-0.3h5.2L294.6,173.9z"/>
	<path class="st0" d="M357.8,147.3c0,2.8-0.5,5.4-1.4,7.7c-0.9,2.3-2.2,4.4-3.9,6.1c-1.7,1.7-3.7,3-6.1,3.9c-2.4,0.9-5,1.4-7.9,1.4
		h-14.6v-38.3h14.6c2.9,0,5.5,0.5,7.9,1.4s4.4,2.3,6.1,3.9c1.7,1.7,3,3.7,3.9,6C357.3,141.9,357.8,144.5,357.8,147.3z M350.5,147.3
		c0-2.1-0.3-4-0.8-5.7c-0.6-1.7-1.4-3.1-2.4-4.2c-1-1.2-2.3-2-3.8-2.7c-1.5-0.6-3.2-0.9-5-0.9H331v26.9h7.4c1.9,0,3.6-0.3,5-0.9
		c1.5-0.6,2.8-1.5,3.8-2.7c1-1.2,1.8-2.6,2.4-4.2C350.2,151.2,350.5,149.4,350.5,147.3z"/>
	<path class="st0" d="M370.9,131.3c0,0.6-0.1,1.1-0.3,1.6c-0.2,0.5-0.5,0.9-0.9,1.3c-0.4,0.4-0.8,0.7-1.3,0.9
		c-0.5,0.2-1.1,0.3-1.6,0.3c-0.6,0-1.1-0.1-1.6-0.3c-0.5-0.2-0.9-0.5-1.3-0.9c-0.4-0.4-0.7-0.8-0.9-1.3c-0.2-0.5-0.3-1-0.3-1.6
		c0-0.6,0.1-1.1,0.3-1.6c0.2-0.5,0.5-1,0.9-1.3c0.4-0.4,0.8-0.7,1.3-0.9c0.5-0.2,1-0.3,1.6-0.3c0.6,0,1.1,0.1,1.6,0.3
		c0.5,0.2,1,0.5,1.3,0.9c0.4,0.4,0.7,0.8,0.9,1.3C370.8,130.2,370.9,130.8,370.9,131.3z M370,139.2v27.2h-6.5v-27.2H370z"/>
	<path class="st0" d="M377.4,166.4v-27.2h3.8c0.7,0,1.1,0.1,1.4,0.4c0.3,0.2,0.4,0.7,0.5,1.3l0.4,3.3c1-1.7,2.1-3,3.4-4
		c1.3-1,2.8-1.5,4.4-1.5c1.3,0,2.5,0.3,3.3,0.9l-0.8,4.9c-0.1,0.3-0.2,0.5-0.3,0.7c-0.2,0.1-0.4,0.2-0.7,0.2c-0.3,0-0.6-0.1-1.1-0.2
		c-0.5-0.1-1.1-0.2-1.8-0.2c-1.4,0-2.5,0.4-3.5,1.1c-1,0.7-1.8,1.8-2.5,3.3v16.9H377.4z"/>
	<path class="st0" d="M410.2,138.8c1.7,0,3.3,0.3,4.7,0.8c1.4,0.5,2.7,1.3,3.7,2.4c1,1.1,1.9,2.3,2.4,3.9c0.6,1.5,0.9,3.3,0.9,5.2
		c0,0.5,0,0.9-0.1,1.2c0,0.3-0.1,0.6-0.2,0.8c-0.1,0.2-0.3,0.3-0.5,0.4c-0.2,0.1-0.4,0.1-0.7,0.1h-16.8c0.2,2.8,0.9,4.8,2.2,6.1
		c1.3,1.3,3,2,5.2,2c1.1,0,2-0.1,2.7-0.4c0.8-0.2,1.4-0.5,2-0.8c0.6-0.3,1.1-0.6,1.5-0.8c0.4-0.2,0.9-0.4,1.3-0.4
		c0.3,0,0.5,0.1,0.7,0.2c0.2,0.1,0.4,0.3,0.5,0.4l1.9,2.4c-0.7,0.8-1.5,1.6-2.4,2.1c-0.9,0.6-1.8,1-2.8,1.4c-1,0.3-2,0.6-3,0.7
		c-1,0.1-2,0.2-3,0.2c-1.9,0-3.6-0.3-5.3-0.9c-1.6-0.6-3-1.6-4.2-2.8c-1.2-1.2-2.1-2.7-2.8-4.6c-0.7-1.8-1-3.9-1-6.3
		c0-1.9,0.3-3.6,0.9-5.2c0.6-1.6,1.5-3.1,2.6-4.3c1.1-1.2,2.5-2.2,4.1-2.9C406.3,139.2,408.2,138.8,410.2,138.8z M410.3,143.5
		c-1.9,0-3.4,0.5-4.5,1.6c-1.1,1.1-1.8,2.6-2.1,4.6h12.3c0-0.8-0.1-1.6-0.3-2.4c-0.2-0.7-0.6-1.4-1.1-2c-0.5-0.6-1.1-1-1.8-1.3
		C412.1,143.7,411.3,143.5,410.3,143.5z"/>
	<path class="st0" d="M446.3,145c-0.2,0.2-0.4,0.4-0.6,0.6c-0.2,0.1-0.5,0.2-0.8,0.2c-0.3,0-0.7-0.1-1-0.3s-0.7-0.4-1.1-0.7
		c-0.4-0.3-1-0.5-1.6-0.7c-0.6-0.2-1.4-0.3-2.3-0.3c-1.1,0-2.2,0.2-3,0.6c-0.9,0.4-1.6,1-2.2,1.8c-0.6,0.8-1,1.7-1.3,2.8
		c-0.3,1.1-0.4,2.4-0.4,3.7c0,1.4,0.2,2.7,0.5,3.9c0.3,1.1,0.8,2.1,1.3,2.8c0.6,0.8,1.3,1.3,2.1,1.7c0.8,0.4,1.8,0.6,2.8,0.6
		c1,0,1.9-0.1,2.5-0.4c0.6-0.3,1.2-0.5,1.6-0.8s0.8-0.6,1.2-0.8c0.3-0.3,0.7-0.4,1.1-0.4c0.5,0,0.9,0.2,1.2,0.6l1.9,2.4
		c-0.7,0.8-1.5,1.6-2.4,2.1c-0.8,0.6-1.7,1-2.6,1.4c-0.9,0.3-1.8,0.6-2.8,0.7c-1,0.1-1.9,0.2-2.9,0.2c-1.7,0-3.3-0.3-4.7-0.9
		c-1.5-0.6-2.8-1.5-3.9-2.7c-1.1-1.2-2-2.7-2.6-4.4c-0.6-1.7-1-3.7-1-5.9c0-2,0.3-3.8,0.9-5.5c0.6-1.7,1.4-3.2,2.5-4.4
		c1.1-1.2,2.5-2.2,4.1-2.9c1.6-0.7,3.5-1.1,5.7-1.1c2,0,3.8,0.3,5.3,1c1.5,0.7,2.9,1.6,4.1,2.8L446.3,145z"/>
	<path class="st0" d="M461.4,166.8c-2.3,0-4.2-0.7-5.4-2c-1.3-1.3-1.9-3.2-1.9-5.5v-15.2h-2.8c-0.4,0-0.7-0.1-0.9-0.3
		c-0.3-0.2-0.4-0.6-0.4-1v-2.6l4.4-0.7l1.4-7.4c0.1-0.4,0.2-0.6,0.5-0.8c0.3-0.2,0.6-0.3,1-0.3h3.4v8.5h7.1v4.7h-7.1v14.7
		c0,0.8,0.2,1.5,0.6,2c0.4,0.5,1,0.7,1.7,0.7c0.4,0,0.7,0,1-0.1c0.3-0.1,0.5-0.2,0.7-0.3c0.2-0.1,0.4-0.2,0.5-0.3
		c0.2-0.1,0.3-0.1,0.5-0.1c0.2,0,0.4,0,0.5,0.1c0.1,0.1,0.3,0.2,0.4,0.4l2,3.2c-1,0.8-2,1.4-3.3,1.8
		C464,166.6,462.8,166.8,461.4,166.8z"/>
	<path class="st0" d="M484.6,138.8c2,0,3.9,0.3,5.5,1c1.6,0.7,3.1,1.6,4.2,2.8c1.2,1.2,2.1,2.7,2.7,4.4c0.6,1.7,1,3.7,1,5.8
		c0,2.2-0.3,4.1-1,5.8c-0.6,1.7-1.5,3.2-2.7,4.4c-1.2,1.2-2.6,2.2-4.2,2.8s-3.5,1-5.5,1c-2,0-3.9-0.3-5.5-1
		c-1.7-0.7-3.1-1.6-4.2-2.8c-1.2-1.2-2.1-2.7-2.7-4.4c-0.6-1.7-1-3.7-1-5.8c0-2.1,0.3-4.1,1-5.8c0.6-1.7,1.6-3.2,2.7-4.4
		c1.2-1.2,2.6-2.1,4.2-2.8C480.7,139.1,482.6,138.8,484.6,138.8z M484.6,161.8c2.3,0,3.9-0.8,5-2.3c1.1-1.5,1.6-3.7,1.6-6.7
		c0-2.9-0.5-5.2-1.6-6.7c-1.1-1.5-2.8-2.3-5-2.3c-2.3,0-4,0.8-5.1,2.3c-1.1,1.5-1.6,3.8-1.6,6.7c0,2.9,0.5,5.1,1.6,6.7
		C480.6,161,482.3,161.8,484.6,161.8z"/>
	<path class="st0" d="M503.1,166.4v-27.2h3.8c0.7,0,1.1,0.1,1.4,0.4c0.3,0.2,0.4,0.7,0.5,1.3l0.4,3.3c1-1.7,2.1-3,3.4-4
		c1.3-1,2.8-1.5,4.4-1.5c1.3,0,2.5,0.3,3.3,0.9l-0.8,4.9c-0.1,0.3-0.2,0.5-0.3,0.7c-0.2,0.1-0.4,0.2-0.7,0.2c-0.3,0-0.6-0.1-1.1-0.2
		c-0.5-0.1-1.1-0.2-1.8-0.2c-1.4,0-2.5,0.4-3.5,1.1c-1,0.7-1.8,1.8-2.5,3.3v16.9H503.1z"/>
	<path class="st0" d="M545.2,166.4h-2.9c-0.6,0-1.1-0.1-1.5-0.3c-0.4-0.2-0.6-0.6-0.8-1.1l-0.6-1.9c-0.7,0.6-1.4,1.2-2,1.6
		c-0.7,0.5-1.3,0.9-2.1,1.2c-0.7,0.3-1.5,0.6-2.2,0.7c-0.8,0.2-1.7,0.2-2.6,0.2c-1.1,0-2.2-0.2-3.2-0.5c-1-0.3-1.8-0.8-2.5-1.4
		c-0.7-0.6-1.2-1.4-1.6-2.3c-0.4-0.9-0.6-2-0.6-3.2c0-1,0.3-2,0.8-3c0.5-1,1.4-1.9,2.7-2.7c1.3-0.8,2.9-1.5,5-2
		c2.1-0.5,4.7-0.8,7.8-0.8v-1.6c0-1.8-0.4-3.2-1.2-4.1c-0.8-0.9-1.9-1.3-3.3-1.3c-1.1,0-1.9,0.1-2.6,0.4c-0.7,0.2-1.3,0.5-1.8,0.8
		c-0.5,0.3-1,0.6-1.4,0.8c-0.4,0.2-0.9,0.4-1.5,0.4c-0.4,0-0.8-0.1-1.1-0.3c-0.3-0.2-0.6-0.5-0.8-0.8l-1.2-2.1
		c3.1-2.9,6.9-4.3,11.3-4.3c1.6,0,3,0.3,4.2,0.8c1.2,0.5,2.3,1.2,3.2,2.2s1.5,2,2,3.3c0.5,1.3,0.7,2.7,0.7,4.2V166.4z M532.5,162.3
		c0.7,0,1.3-0.1,1.9-0.2c0.6-0.1,1.1-0.3,1.6-0.5c0.5-0.2,1-0.5,1.5-0.9c0.5-0.4,0.9-0.8,1.4-1.3v-4.5c-1.9,0-3.5,0.1-4.8,0.4
		c-1.3,0.2-2.3,0.5-3.1,0.9c-0.8,0.4-1.3,0.8-1.7,1.3c-0.3,0.5-0.5,1-0.5,1.6c0,1.2,0.3,2,1,2.5
		C530.5,162.1,531.4,162.3,532.5,162.3z"/>
	<path class="st0" d="M560.6,166.8c-2.3,0-4.2-0.7-5.4-2c-1.3-1.3-1.9-3.2-1.9-5.5v-15.2h-2.8c-0.4,0-0.7-0.1-0.9-0.3
		c-0.3-0.2-0.4-0.6-0.4-1v-2.6l4.4-0.7l1.4-7.4c0.1-0.4,0.2-0.6,0.5-0.8c0.3-0.2,0.6-0.3,1-0.3h3.4v8.5h7.1v4.7h-7.1v14.7
		c0,0.8,0.2,1.5,0.6,2c0.4,0.5,1,0.7,1.7,0.7c0.4,0,0.7,0,1-0.1c0.3-0.1,0.5-0.2,0.7-0.3c0.2-0.1,0.4-0.2,0.5-0.3
		c0.2-0.1,0.3-0.1,0.5-0.1c0.2,0,0.4,0,0.5,0.1c0.1,0.1,0.3,0.2,0.4,0.4l2,3.2c-1,0.8-2,1.4-3.3,1.8
		C563.2,166.6,561.9,166.8,560.6,166.8z"/>
	<path class="st0" d="M583.4,138.8c1.7,0,3.3,0.3,4.7,0.8c1.4,0.5,2.7,1.3,3.7,2.4c1,1.1,1.9,2.3,2.4,3.9c0.6,1.5,0.9,3.3,0.9,5.2
		c0,0.5,0,0.9-0.1,1.2c0,0.3-0.1,0.6-0.2,0.8c-0.1,0.2-0.3,0.3-0.5,0.4c-0.2,0.1-0.4,0.1-0.7,0.1h-16.8c0.2,2.8,0.9,4.8,2.2,6.1
		c1.3,1.3,3,2,5.2,2c1.1,0,2-0.1,2.7-0.4c0.8-0.2,1.4-0.5,2-0.8c0.6-0.3,1.1-0.6,1.5-0.8c0.4-0.2,0.9-0.4,1.3-0.4
		c0.3,0,0.5,0.1,0.7,0.2c0.2,0.1,0.4,0.3,0.5,0.4l1.9,2.4c-0.7,0.8-1.5,1.6-2.4,2.1c-0.9,0.6-1.8,1-2.8,1.4c-1,0.3-2,0.6-3,0.7
		c-1,0.1-2,0.2-3,0.2c-1.9,0-3.6-0.3-5.3-0.9c-1.6-0.6-3-1.6-4.2-2.8c-1.2-1.2-2.1-2.7-2.8-4.6c-0.7-1.8-1-3.9-1-6.3
		c0-1.9,0.3-3.6,0.9-5.2c0.6-1.6,1.5-3.1,2.6-4.3c1.1-1.2,2.5-2.2,4.1-2.9C579.5,139.2,581.3,138.8,583.4,138.8z M583.5,143.5
		c-1.9,0-3.4,0.5-4.5,1.6c-1.1,1.1-1.8,2.6-2.1,4.6h12.3c0-0.8-0.1-1.6-0.3-2.4c-0.2-0.7-0.6-1.4-1.1-2c-0.5-0.6-1.1-1-1.8-1.3
		C585.3,143.7,584.5,143.5,583.5,143.5z"/>
</g>
</svg>
