<svg xmlns="http://www.w3.org/2000/svg" viewBox="0 0 55.64 55.64"><defs><style>.cls-1{fill:#f1d164;}</style></defs><title>Recurso 1@punto3</title><g id="Capa_2" data-name="Capa 2"><g id="Capa_1-2" data-name="Capa 1"><path class="cls-1" d="M55.64,27.82A27.82,27.82,0,1,1,27.82,0,27.83,27.83,0,0,1,55.64,27.82ZM19.13,45.41l9.69-6.59H42.63a1,1,0,0,0,1-1v-21a1,1,0,0,0-1-1h-30a1,1,0,0,0-1,1v21a1,1,0,0,0,1,1h4.69l.25,5.81a1,1,0,0,0,1,.95A1,1,0,0,0,19.13,45.41Zm-5.5-27.59h28v19H28.51A1,1,0,0,0,28,37l-8.46,5.76-.21-5a1,1,0,0,0-1-1H13.63Z"/></g></g></svg>